<?xml version="1.0" encoding="utf-8"?>
<!-- Generator: Adobe Illustrator 24.1.2, SVG Export Plug-In . SVG Version: 6.00 Build 0)  -->
<svg version="1.1" id="Layer_1" xmlns="http://www.w3.org/2000/svg" xmlns:xlink="http://www.w3.org/1999/xlink" x="0px" y="0px"
	 viewBox="0 0 128 128" style="enable-background:new 0 0 128 128;" xml:space="preserve">
<style type="text/css">
	.st0{fill-rule:evenodd;clip-rule:evenodd;fill:#FAAB31;}
</style>
<path class="st0" d="M45.5,9.6C26.8,18.2,12.2,33.8,4.8,53.1C0.4,64.8-1,78.6,5.1,89.5c2.8,4.7,6.4,8.8,10.7,12.3
	C35.6,119,64.5,130,90,124c-0.3-0.4-0.5-0.8-0.7-1.3c-0.6-1.3-1-2.7-1.1-4.2c0.2-2.3-0.9-4.4-0.7-6.6c0.2-2.3,0.2-4.6,0-6.8
	c0-0.9-0.5-1.8-0.5-2.4c-0.1-1-0.1-2,0-3c-0.3-1.4-0.1-2.9,0.5-4.2c0.1-0.5,0-1-0.2-1.4c-0.2-0.4-0.5-0.9-0.2-1.4
	c0.4-0.7,0.5-1.6,0.4-2.4c0-2.1,0-17.3,0.2-19.4c-0.3-1.7-0.1-3.5,0.7-5.1v-4.9c0-0.2-0.2-0.3-0.3-0.4c-0.2,0.2-0.4,0.2-0.4,0.4
	c-1.2,3.3-3,6.3-3.9,9.6c-0.3,0.9-0.6,1.7-1,2.5c-0.5,1.6-1.2,3.1-1.9,4.7l-2.8,4.7c-0.9,1.5-1.6,3.1-2.2,4.7
	c-1.9,4-4.2,7.9-6.5,11.7c-1.4,2.9-3.3,5.6-5.6,7.9c-1.2,1.1-2.9,1.5-4.5,1c-0.4,0-0.5-0.5-0.9-0.5c-3.6-0.2-4.7-2.4-5.3-5.3
	c-0.4-0.9-1.2-1.8-0.2-2.8c0-1,0-2,0.2-3c0-0.7-0.9-1.2-0.4-2.1c0.2-0.6,0.3-1.2,0.4-1.8c0.2-1.8,0.5-3.5,1-5.2
	c-0.3,0.5-0.6,1-0.8,1.5c-2.1,2.5-4.4,4.7-7,6.6c-0.9,0.4-1.2,1.2-2.3,1.4c-2.6,2.3-5.8,3-8.9,4.2c-1.6,0.3-3.3,0.4-4.9,0.4
	c-1.6,0-3.2-0.2-4.7-0.5c-2.2-0.5-4.2-1.7-5.8-3.3c-0.4-0.4-0.5-0.9-1-1c-3-1.4-3.7-4.6-5.1-7c-0.4-0.7-0.2-1.6-0.5-2.3
	c-0.5-1.7-1.4-3.2-2.6-4.4c-0.3-0.4-0.5-0.8-0.7-1.2c-0.2-0.5,0-1.1,0.5-1.3c0.1,0,0.2-0.1,0.2-0.1h1c0.5,0,1.2-0.2,1.1-0.9
	c-0.2-2.4,1-4.5,0.9-7c0-0.5,0.3-0.9,0.5-1.4c0.5-1.1,0.8-2.3,1-3.6c0.2-1,0.9-2.1,0.7-3.1v-0.7c1.4-1.9,1.4-4.4,3-6.3
	c0.8-1.3,1.6-2.7,2.2-4.2c-0.2-2.5,1.6-3.6,3.1-4.6c1.6-1.2,3.3-2.2,5.2-2.8c1.1-0.3,2.3-0.2,3.3,0.3c0.6,0.4,1.2,0.7,1.9,0.9
	c0.8,0.3,1.4,1,1.6,1.9c0.2,1.2,0.9,2.1,0.7,3.3c-0.2,1.6,0.3,3.1-0.4,4.7c-0.3,0.6-0.4,1.3-0.4,1.9c0,1.8-1,3.3-0.9,5.1
	c-1,1.4-1.2,3-2.5,4.2c-1.8,3.7-4.7,6.6-6.6,10.3c-0.7,0.9-1.6,1.6-2.3,2.5c-0.7,0.9-1,1.6-2.1,2.1c-0.7,0.2-1,1-1.6,1.4
	c-0.6,0.5-0.9,1.3-0.7,2.1c0.1,1.8,0.7,3.6,1.8,5.1c0.3,0.7,0.9,1.2,1.2,1.9c0.8,1.5,2.1,2.7,3.7,3.1c1.6,0.5,3.3,0.5,4.9,0
	c2.1-0.7,4.4-0.9,5.9-2.6c2.7-1.2,5.3-2.8,7.7-4.5c0.6-0.4,1.2-0.9,1.8-1.4c1.2-0.9,2.3-1.9,3.6-2.8c1.1-0.7,2-1.7,2.6-2.8
	c0.8-1.5,1.9-2.7,3.3-3.6c0.7-0.5,1.5-1.1,2.1-1.8c0.5-1.2,0.7-2.5,1.2-3.7c0.9-1.9,1.6-3.7,2.4-5.3c0.2-0.5,0.2-1,0.4-1.6
	c0.1-1.6,0.9-3.1,2.3-4c1.6-0.9,2.8-2.3,4.6-3.1c1.7-1.2,3.6-2.2,5.6-2.8c1.3-0.6,2.8-0.6,4.2-0.2c1.4,0.7,2.8-0.2,4,0.9
	c0,0.2,0.5-0.2,0.5-0.3c0.4-0.5,0.7-1,0.9-1.6c1-3,2.6-5.6,3.6-8.6c0.9-3,1.9-5.6,2.8-8.4c0.2-0.2,0.3-0.4,0.3-0.7
	c-0.3-3,1-5.8,0.7-8.9c-0.1-1.5,0.1-3,0.7-4.4c0.5-1.2-0.2-3,0.7-4.4c0.2-0.6,0.3-1.2,0.2-1.8c-0.1-2.4,0.3-4.8,1-7.1
	c-15.3-8.9-31.7-9-48.5-1.3L45.5,9.6z M96.7,51c0.3,2.1,0.1,4.3-0.5,6.3c-0.3,0.5-0.2,1.4-0.2,2.1c0,2.5-0.2,4.9,0,7.1
	c0.2,1.9-0.9,3.6-0.7,5.2c0.2,2.3,0,17.8,0,20.1c0,3.1,0.2,6.5,0,9.8c-0.2,1.4,0.9,2.6,0.7,4c-0.1,1.2-0.1,2.4,0,3.7v2.3
	c0,1.9,0.2,3.8,0.7,5.6c0.2,1.4,0.2,2.8,0.2,4.2c0,0.1,0,0.3,0,0.4c5.1-1.9,9.8-4.5,14.1-7.7c16-12.1,17.9-37.1,14.8-55.8
	c-2.6-16.3-10.9-31.1-23.5-41.8l-1-0.8c0,0.6-0.2,1.3-0.6,1.8c0,2.4-1.2,4.7-0.9,7.1c0.2,1.2-1,2.1-0.9,3.6c0.1,1.3,0.2,2.6,0.1,3.9
	c-1.2,1.8-0.4,4.2-1.2,6.1c-0.5,0.7-0.2,1.9-0.2,3c0,1,0.2,2.5-0.7,3.7c-0.2,0.2,0,0.7,0,1c-0.4,0.9,0.7,1.4,0.2,2.5
	C96.8,49.2,96.7,50.1,96.7,51L96.7,51z M70.8,65.2c1.5-1,2.8-2.2,3.9-3.6c0.3-0.5,0.7-0.5,1.2-0.2c0.5,0.3,1.6,0.5,1.8,1.2
	c0.4,1.2,1.2,1.4,2.3,1.4c0.7,0,0.9,0,0.5,0.7c-0.1,0.7-0.4,1.4-0.7,2.1c-1.2,3-2.6,6-4,8.8c-1.2,3-2.5,5.9-4,8.7l-5.9,11.5
	c-0.8,1.5-1.9,3-3.1,4.2c-0.7,0.7-1.2,1.8-2.1,2.6c0,0.2-0.3,0.4-0.5,0.4c-0.3-0.2-0.5-0.5-0.7-0.9c-0.2-0.2-0.2-0.7-0.4-1v-3h0.2
	V94c1-1,0.5-2.6,1-3.8c0.4-1.6,0.8-3.1,1-4.7c0.4-1.6,0.9-3.2,1.6-4.7c0.7-1.6,1.8-2.8,1.6-4.6c0-0.5,0.5-0.9,0.7-1.4l1.6-4
	C67.4,68.5,68.9,66.6,70.8,65.2L70.8,65.2z M27.9,52.9c0.2-0.4,0.5-0.5,0.7-0.7c0.2,0.3,0.4,0.6,0.5,0.9v1h-0.2c0,0.9,0.3,1.8,0,2.3
	c-0.7,1.2-0.5,2.6-1,3.8l-2.1,6c-0.3,0.9-0.9,1.7-1.6,2.5c-0.9,1-1.4,2.3-2.3,3.6c-0.5,1-1.6,1.8-1.8,1.4c-0.3-0.9,0-1.4,0.4-2.3
	c0.9-2.5,1.6-5.1,2.5-7.5C24.3,60.1,26,56.4,27.9,52.9z"/>
</svg>
