<?xml version="1.0" encoding="utf-8"?>
<!-- Generator: Adobe Illustrator 24.1.2, SVG Export Plug-In . SVG Version: 6.00 Build 0)  -->
<svg version="1.1" id="Layer_1" xmlns="http://www.w3.org/2000/svg" xmlns:xlink="http://www.w3.org/1999/xlink" x="0px" y="0px"
	 viewBox="0 0 200 80" style="enable-background:new 0 0 200 80;" xml:space="preserve">
<style type="text/css">
	.st0{fill-rule:evenodd;clip-rule:evenodd;fill:#FFFFFF;}
	.st1{display:none;fill-rule:evenodd;clip-rule:evenodd;fill:#FFFFFF;}
	.st2{display:none;fill:none;}
</style>
<path class="st0" d="M154.2,9.7c-10.1,4.7-18.1,13.1-22.1,23.6c-2.4,6.4-3.1,13.8,0.2,19.8c1.5,2.5,3.5,4.8,5.8,6.7
	c10.8,9.3,26.4,15.3,40.2,12c-0.2-0.2-0.3-0.4-0.4-0.7c-0.4-0.7-0.5-1.5-0.6-2.3c0.1-1.2-0.5-2.4-0.4-3.6c0.1-1.2,0.1-2.5,0-3.7
	c0-0.5-0.3-1-0.3-1.3c0-0.5,0-1.1,0-1.6c-0.1-0.8,0-1.6,0.3-2.3c0.1-0.3,0-0.5-0.1-0.8c-0.1-0.2-0.3-0.5-0.1-0.8
	c0.2-0.4,0.3-0.9,0.2-1.3c0-1.1,0-9.4,0.1-10.5c-0.2-0.9,0-1.9,0.4-2.7v-2.7c0-0.1-0.1-0.2-0.2-0.2c-0.1,0.1-0.2,0.1-0.2,0.2
	c-0.7,1.8-1.6,3.4-2.1,5.2c-0.1,0.5-0.3,0.9-0.6,1.3c-0.3,0.9-0.7,1.7-1,2.6l-1.5,2.6c-0.5,0.8-0.9,1.7-1.2,2.6
	c-1,2.2-2.3,4.3-3.5,6.4c-0.8,1.6-1.8,3-3,4.3c-0.7,0.6-1.6,0.8-2.5,0.6c-0.2,0-0.3-0.3-0.5-0.3c-1.9-0.1-2.6-1.3-2.9-2.9
	c-0.2-0.5-0.7-1-0.1-1.5c0-0.5,0-1.1,0.1-1.6c0-0.4-0.5-0.7-0.2-1.1c0.1-0.3,0.1-0.6,0.2-1c0.1-0.9,0.3-1.9,0.5-2.8
	c-0.2,0.3-0.3,0.5-0.4,0.8c-1.1,1.3-2.4,2.6-3.8,3.6c-0.5,0.2-0.7,0.7-1.2,0.8c-1.4,1.2-3.1,1.6-4.8,2.3c-0.9,0.2-1.8,0.2-2.6,0.2
	c-0.9,0-1.7-0.1-2.6-0.3c-1.2-0.3-2.3-0.9-3.1-1.8c-0.2-0.2-0.3-0.5-0.6-0.6c-1.6-0.8-2-2.5-2.7-3.8c-0.2-0.4-0.1-0.8-0.3-1.2
	c-0.2-0.9-0.7-1.7-1.4-2.4c-0.2-0.2-0.3-0.4-0.4-0.7c-0.1-0.3,0-0.6,0.2-0.7c0,0,0.1,0,0.1,0h0.6c0.3,0,0.7-0.1,0.6-0.5
	c-0.1-1.3,0.6-2.5,0.5-3.8c0-0.3,0.2-0.5,0.3-0.8c0.3-0.6,0.5-1.3,0.6-1.9c0.1-0.6,0.5-1.1,0.4-1.7v-0.4c0.8-1,0.8-2.4,1.6-3.4
	c0.4-0.7,0.8-1.5,1.2-2.3c-0.1-1.3,0.9-1.9,1.7-2.5c0.8-0.7,1.8-1.2,2.8-1.5c0.6-0.2,1.2-0.1,1.8,0.2c0.3,0.2,0.7,0.4,1,0.5
	c0.4,0.2,0.8,0.6,0.8,1c0.1,0.7,0.5,1.1,0.4,1.8c-0.1,0.9,0.2,1.7-0.2,2.6c-0.2,0.3-0.2,0.7-0.2,1c0,1-0.6,1.8-0.5,2.7
	c-0.6,0.8-0.7,1.6-1.3,2.3c-1,2-2.6,3.6-3.6,5.6c-0.4,0.5-0.8,0.9-1.2,1.3s-0.6,0.9-1.1,1.1c-0.4,0.1-0.6,0.6-0.8,0.8
	c-0.3,0.3-0.5,0.7-0.4,1.1c0,1,0.4,1.9,1,2.8c0.2,0.4,0.5,0.7,0.7,1c0.4,0.8,1.1,1.4,2,1.7c0.9,0.3,1.8,0.3,2.7,0
	c1.1-0.4,2.4-0.5,3.2-1.4c1.5-0.7,2.9-1.5,4.2-2.5c0.3-0.2,0.7-0.5,1-0.8c0.7-0.5,1.2-1,1.9-1.5c0.6-0.4,1.1-0.9,1.4-1.5
	c0.4-0.8,1-1.5,1.8-1.9c0.4-0.3,0.8-0.6,1.2-1c0.3-0.6,0.4-1.3,0.7-2c0.5-1,0.8-2,1.3-2.9c0.1-0.3,0.1-0.6,0.2-0.9
	c0.1-0.9,0.5-1.7,1.2-2.2c0.8-0.5,1.5-1.2,2.5-1.7c0.9-0.7,2-1.2,3-1.5c0.7-0.3,1.5-0.3,2.3-0.1c0.8,0.4,1.5-0.1,2.2,0.5
	c0,0.1,0.3-0.1,0.3-0.2c0.2-0.3,0.4-0.6,0.5-0.9c0.6-1.6,1.4-3,1.9-4.6s1-3,1.5-4.6c0.1-0.1,0.2-0.2,0.2-0.4
	c-0.2-1.6,0.6-3.1,0.4-4.8c-0.1-0.8,0.1-1.6,0.4-2.4c0.3-0.7-0.1-1.6,0.4-2.4c0.1-0.3,0.2-0.6,0.1-1c0-1.3,0.2-2.6,0.6-3.9
	C172.3,5.5,163.4,5.4,154.2,9.7L154.2,9.7z M181.9,32.1c0.1,1.1,0,2.3-0.3,3.4c-0.2,0.3-0.1,0.8-0.1,1.1c0,1.3-0.1,2.7,0,3.9
	c0.1,1-0.5,1.9-0.4,2.8c0.1,1.2,0,9.6,0,10.9c0,1.7,0.1,3.5,0,5.3c-0.1,0.8,0.5,1.4,0.4,2.2c0,0.7,0,1.3,0,2V65c0,1,0.1,2,0.4,3
	c0.1,0.8,0.1,1.5,0.1,2.3c0,0.1,0,0.1,0,0.2c2.7-1,5.3-2.4,7.7-4.2c8.7-6.5,9.7-20.1,8-30.2c-1.4-8.8-5.9-16.8-12.7-22.6l-0.5-0.4
	c0,0.4-0.1,0.7-0.3,1c0,1.3-0.7,2.6-0.5,3.9c0.1,0.7-0.6,1.1-0.5,1.9c0.1,0.7,0.1,1.4,0,2.1c-0.7,1-0.2,2.3-0.7,3.3
	c-0.3,0.4-0.1,1-0.1,1.6s0.1,1.3-0.4,2c-0.1,0.1,0,0.4,0,0.6c-0.2,0.5,0.4,0.8,0.1,1.3C182.1,31.2,182,31.6,181.9,32.1L181.9,32.1z
	 M167.9,39.8c0.8-0.5,1.5-1.2,2.1-1.9c0.2-0.3,0.4-0.3,0.7-0.1s0.8,0.3,1,0.7c0.2,0.7,0.7,0.8,1.2,0.8c0.4,0,0.5,0,0.3,0.4
	c-0.1,0.4-0.2,0.8-0.4,1.1c-0.7,1.6-1.4,3.2-2.2,4.7c-0.6,1.6-1.4,3.2-2.2,4.7l-3.2,6.2c-0.5,0.8-1,1.6-1.7,2.3
	c-0.4,0.4-0.7,1-1.1,1.4c0,0.1-0.2,0.2-0.3,0.2c-0.2-0.1-0.3-0.3-0.4-0.5c-0.1-0.1-0.1-0.4-0.2-0.6v-1.6h0.1v-2.3
	c0.6-0.6,0.3-1.4,0.6-2.1c0.2-0.8,0.4-1.7,0.6-2.6c0.2-0.9,0.5-1.7,0.8-2.6c0.4-0.9,1-1.5,0.9-2.5c0-0.3,0.3-0.5,0.4-0.8l0.9-2.2
	C166.1,41.6,166.9,40.5,167.9,39.8L167.9,39.8z M144.7,33.1c0.1-0.2,0.3-0.3,0.4-0.4c0.1,0.1,0.2,0.3,0.3,0.5v0.6h-0.1
	c0,0.5,0.2,1,0,1.2c-0.4,0.7-0.3,1.4-0.6,2.1l-1.1,3.2c-0.2,0.5-0.5,0.9-0.8,1.3c-0.5,0.6-0.8,1.2-1.2,1.9c-0.3,0.6-0.9,1-1,0.8
	c-0.2-0.5,0-0.8,0.2-1.2c0.5-1.3,0.9-2.8,1.3-4.1C142.8,37,143.7,35.1,144.7,33.1z"/>
<path class="st1" d="M177,61.4c0.1,1.2,0.1,2.5,0,3.7c-0.1,1.2,0.5,2.4,0.4,3.6c0,0.8,0.2,1.6,0.6,2.3c0.1,0.3,0.2,0.5,0.4,0.7
	c1.3-0.3,2.5-0.7,3.7-1.1c0-0.1,0-0.1,0-0.2c0-0.8,0-1.5-0.1-2.3c-0.3-1-0.4-2-0.4-3v-1.2c0-0.7,0-1.3,0-2c0.1-0.8-0.5-1.4-0.4-2.2
	c0.1-1.8,0-3.6,0-5.3c0-1.2,0.1-9.6,0-10.9c-0.1-1,0.5-1.8,0.4-2.8c-0.1-1.2,0-2.6,0-3.9c0-0.4-0.1-0.8,0.1-1.1
	c0.3-1.1,0.4-2.3,0.3-3.4c0-0.5,0.1-1,0.2-1.4c0.3-0.6-0.3-0.9-0.1-1.3c0-0.2-0.1-0.5,0-0.6c0.5-0.7,0.3-1.3,0.4-2s-0.2-1.2,0.1-1.6
	c0.5-1,0-2.4,0.7-3.3c0-0.7,0-1.4,0-2.1c-0.1-0.8,0.6-1.2,0.5-1.9c-0.2-1.3,0.5-2.6,0.5-3.9c0.2-0.3,0.3-0.6,0.3-1
	c-1.2-1-2.6-1.9-3.9-2.7c-0.4,1.2-0.6,2.5-0.6,3.9c0.1,0.3,0,0.7-0.1,1c-0.5,0.8-0.1,1.7-0.4,2.4c-0.3,0.8-0.4,1.6-0.4,2.4
	c0.2,1.7-0.6,3.2-0.4,4.8c0,0.1-0.1,0.3-0.2,0.4c-0.5,1.5-1,3-1.5,4.6c-0.6,1.5-1.3,3-1.9,4.6c-0.1,0.3-0.3,0.6-0.5,0.9
	c0,0.1-0.3,0.3-0.3,0.2c-0.7-0.6-1.4-0.1-2.2-0.5c-0.7-0.3-1.6-0.2-2.3,0.1c-1.1,0.3-2.1,0.8-3.1,1.5c-1,0.5-1.6,1.2-2.5,1.7
	c-0.7,0.5-1.2,1.3-1.2,2.2c-0.1,0.3-0.1,0.6-0.2,0.9c-0.5,1-0.8,1.9-1.3,2.9c-0.3,0.7-0.4,1.4-0.7,2c-0.4,0.3-0.7,0.7-1.2,1
	c-0.8,0.5-1.4,1.1-1.8,1.9c-0.3,0.6-0.8,1.1-1.4,1.5c-0.7,0.5-1.2,1-1.9,1.5c-0.3,0.3-0.6,0.5-1,0.8c-1.3,1-2.7,1.8-4.2,2.5
	c-0.8,1-2.1,1-3.2,1.4c-0.9,0.3-1.8,0.3-2.7,0c-0.9-0.3-1.7-0.9-2.1-1.7c-0.2-0.4-0.5-0.7-0.7-1c-0.6-0.8-0.9-1.8-1-2.8
	c-0.1-0.4,0-0.9,0.4-1.1c0.3-0.2,0.5-0.7,0.8-0.8c0.6-0.3,0.8-0.8,1.1-1.1c0.4-0.4,0.9-0.8,1.2-1.3c1-2,2.7-3.6,3.6-5.6
	c0.7-0.7,0.8-1.5,1.3-2.3c-0.1-1,0.5-1.8,0.5-2.7c0-0.4,0-0.7,0.2-1c0.4-0.9,0.1-1.7,0.2-2.6c0.1-0.7-0.3-1.1-0.4-1.8
	c-0.1-0.5-0.4-0.9-0.8-1c-0.4-0.1-0.7-0.3-1-0.5c-0.6-0.3-1.2-0.4-1.8-0.2c-1,0.3-1.9,0.8-2.7,1.5c-0.8,0.6-1.8,1.1-1.7,2.5
	c-0.3,0.8-0.8,1.6-1.2,2.3c-0.9,1-0.9,2.4-1.6,3.4v0.4c0.1,0.6-0.3,1.1-0.4,1.7c-0.1,0.7-0.3,1.3-0.6,1.9c-0.1,0.3-0.3,0.5-0.3,0.8
	c0.1,1.3-0.6,2.5-0.5,3.8c0.1,0.4-0.3,0.5-0.6,0.5h-0.6c-0.3,0.1-0.5,0.3-0.4,0.6c0,0,0,0.1,0,0.1c0.1,0.2,0.2,0.5,0.4,0.7
	c0.7,0.6,1.2,1.5,1.4,2.4c0.2,0.4,0.1,0.9,0.3,1.2c0.8,1.3,1.1,3,2.7,3.8c0.3,0.1,0.4,0.4,0.6,0.6c0.9,0.9,1.9,1.5,3.1,1.8
	c0.8,0.2,1.7,0.3,2.6,0.3c0.9,0,1.8,0,2.6-0.2c1.7-0.7,3.4-1,4.8-2.3c0.6-0.1,0.8-0.6,1.2-0.8c1.4-1,2.7-2.3,3.8-3.6
	c0.1-0.3,0.3-0.6,0.4-0.8c-0.2,0.9-0.4,1.9-0.5,2.8c0,0.3-0.1,0.6-0.2,1c-0.3,0.5,0.2,0.8,0.2,1.1c-0.1,0.5-0.1,1.1-0.1,1.6
	c-0.6,0.6-0.1,1,0.1,1.5c0.4,1.5,1,2.8,2.9,2.9c0.2,0,0.3,0.3,0.5,0.3c0.9,0.3,1.8,0,2.5-0.6c1.2-1.3,2.3-2.7,3-4.3
	c1.2-2.1,2.5-4.2,3.5-6.4c0.3-0.9,0.7-1.7,1.2-2.6l1.5-2.6c0.4-0.9,0.8-1.7,1-2.6c0.2-0.4,0.4-0.9,0.6-1.3c0.5-1.8,1.4-3.4,2.1-5.2
	c0-0.1,0.1-0.1,0.2-0.2c0.1,0,0.2,0.1,0.2,0.2v2.7c-0.4,0.9-0.5,1.8-0.4,2.7c-0.1,1.1-0.1,9.4-0.1,10.5c0.1,0.4,0,0.9-0.2,1.3
	c-0.2,0.3,0,0.6,0.1,0.8c0.1,0.2,0.2,0.5,0.1,0.8c-0.3,0.7-0.4,1.5-0.3,2.3c0,0.5,0,1.1,0,1.6c0,0.4,0.3,0.8,0.3,1.3L177,61.4z
	 M170.6,45.5c-0.6,1.6-1.4,3.2-2.2,4.7l-3.2,6.2c-0.5,0.8-1,1.6-1.7,2.3c-0.4,0.4-0.7,1-1.1,1.4c0,0.1-0.2,0.2-0.3,0.2
	c-0.2-0.1-0.3-0.3-0.4-0.5c-0.1-0.1-0.1-0.4-0.2-0.6v-1.6h0.1v-2.3c0.6-0.6,0.3-1.4,0.6-2.1c0.2-0.8,0.4-1.7,0.6-2.6
	c0.2-0.9,0.5-1.7,0.8-2.6c0.4-0.9,1-1.5,0.9-2.5c0-0.3,0.3-0.5,0.4-0.8l0.9-2.2c0.4-1.2,1.2-2.3,2.3-3c0.8-0.5,1.5-1.2,2.1-1.9
	c0.2-0.3,0.4-0.3,0.7-0.1s0.8,0.3,1,0.7c0.2,0.7,0.7,0.8,1.2,0.8c0.4,0,0.5,0,0.3,0.4c-0.1,0.4-0.2,0.8-0.4,1.1
	C172.1,42.3,171.3,43.9,170.6,45.5L170.6,45.5z M145.3,35c-0.4,0.7-0.3,1.4-0.6,2.1l-1.1,3.2c-0.2,0.5-0.5,0.9-0.8,1.3
	c-0.5,0.6-0.8,1.2-1.2,1.9c-0.3,0.6-0.9,1-1,0.8c-0.2-0.5,0-0.8,0.2-1.2c0.5-1.3,0.9-2.8,1.3-4.1c0.7-2,1.6-4,2.7-5.9
	c0.1-0.2,0.3-0.3,0.4-0.4c0.1,0.1,0.2,0.3,0.3,0.5v0.6h-0.1C145.3,34.3,145.5,34.8,145.3,35z"/>
<path class="st0" d="M107.1,53.2h13.2V55h-13.2V53.2z M107.1,25.6h12.8v1.8h-12.8C107.1,27.4,107.1,25.6,107.1,25.6z M101.4,55h3.7
	V42.5h13.2v-3.3h-13.2V25.6h-3.7C101.4,25.6,101.4,55,101.4,55z M91.1,55h3.7V25.6h-3.7L91.1,55L91.1,55z M77,49.8l10-24.2h-2.1
	L76,47.6L77,49.8L77,49.8z M74,55.8h0.3l1.5-3.3L65,25.6h-3.9L74,55.8L74,55.8z M46.1,55.6c-8.1,0-14.8-6.4-14.8-15.3
	c-0.1-3.6,1.1-7.1,3.4-9.9l2.6,2.6c-1.5,2.2-2.3,4.7-2.2,7.3c0,7,5,12,11.1,12c2.8,0,5.5-1.1,7.5-3l2.5,2.5
	C53.4,54.2,49.8,55.6,46.1,55.6z M57.5,50.2c2.2-2.8,3.3-6.4,3.2-9.9c0-8.8-6.5-15.2-14.6-15.2c-3.7,0-7.2,1.4-9.9,3.9l1.3,1.3
	c2.3-2.2,5.4-3.4,8.6-3.4c7,0,12.6,5.6,12.6,13.4c0.1,3.1-0.9,6.1-2.6,8.6L57.5,50.2L57.5,50.2z M18.1,55.6c4.1,0,8-1.7,10.8-4.7
	L27,48.1c-2.3,2.6-5.6,4.1-9,4.2c-5.9,0-10.5-4.4-11-10.9H3.4C3.8,49.7,10.1,55.6,18.1,55.6z M3.4,39.2h2.1
	c0.5-7.3,5.9-12.4,12.5-12.4c3.5,0,6.8,1.4,9.3,3.9l1-1.4c-2.7-2.8-6.4-4.3-10.3-4.2C10.1,25,3.9,30.9,3.4,39.2z"/>
<path class="st0" d="M44.2,71c1.6,0,2.3-0.7,2.3-1.8s-0.7-1.5-2-1.7s-1.6-0.5-1.6-1.2c0-0.7,0.5-1.1,1.5-1.1c0.6,0,1.1,0.1,1.6,0.5
	h0.2v-0.5c-0.5-0.3-1.2-0.5-1.8-0.5c-1.2,0-2.1,0.6-2.1,1.6c0,1.1,0.8,1.5,1.9,1.7c1.2,0.2,1.7,0.5,1.7,1.2c0,0.7-0.5,1.3-1.7,1.3
	c-0.6,0-1.3-0.2-1.7-0.6h-0.2v0.5C42.7,70.8,43.4,71,44.2,71z M47.1,65.2h0.8v4.4c0,0.9,0.5,1.4,1.5,1.4c0.3,0,0.6,0,1-0.1v-0.4
	h-0.7c-0.7,0-1.1-0.2-1.1-1v-4.3h1.7v-0.5h-1.7V63h-0.6v1.7h-0.8L47.1,65.2L47.1,65.2z M55.5,70.3c0,0.6,0.1,0.7,0.3,0.7h0.3v-6.3
	h-0.6v4.8c-0.7,0.6-1.6,0.9-2.5,1c-0.7,0-1.2-0.2-1.2-1.2v-4.6h-0.6v4.7c-0.1,0.8,0.5,1.5,1.3,1.6c0.1,0,0.3,0,0.4,0
	c0.9,0,1.9-0.4,2.6-1L55.5,70.3L55.5,70.3z M62.1,70.3c0,0.6,0,0.7,0.3,0.7h0.3v-7.8c0-0.5-0.1-0.6-0.4-0.6h-0.2v2.8
	c-0.5-0.5-1.3-0.8-2.1-0.8c-1.3,0-2.7,0.8-2.7,3.2s1.2,3.1,2.4,3.1c0.9,0,1.7-0.4,2.3-1.1L62.1,70.3L62.1,70.3z M59.9,70.6
	c-1,0-1.9-0.6-1.9-2.7s1.1-2.7,2.1-2.7c0.8,0,1.5,0.3,2,0.8v3.3C61.6,70,60.8,70.5,59.9,70.6L59.9,70.6z M64.6,67.9h4.7
	c0,0,0-0.2,0-0.3c0-2-1-2.9-2.6-2.9c-1.5,0-2.8,1.2-2.8,3.2c0,2,1,3.1,2.9,3.1c0.8,0,1.6-0.2,2.3-0.7v-0.5h-0.3
	c-0.5,0.5-1.2,0.7-1.9,0.6C65.4,70.5,64.6,69.6,64.6,67.9L64.6,67.9z M66.8,65.2c1.2,0,1.9,0.6,1.9,2.3h-4
	C64.8,65.9,65.6,65.2,66.8,65.2L66.8,65.2z M71.1,65.4c0-0.5-0.1-0.6-0.3-0.6h-0.3V71h0.6v-4.8c0.7-0.6,1.6-1,2.5-1
	c0.7,0,1.2,0.2,1.2,1.2v4.6h0.6v-4.6c0.1-0.8-0.4-1.5-1.2-1.7c-0.1,0-0.3,0-0.4,0c-1,0-2,0.4-2.7,1.1V65.4L71.1,65.4z M76.5,65.2
	h0.8v4.4c0,1,0.5,1.4,1.5,1.4c0.3,0,0.6,0,1-0.1v-0.4H79c-0.7,0-1.1-0.2-1.1-1v-4.4h1.7v-0.5h-1.7V63h-0.6v1.7h-0.8L76.5,65.2
	L76.5,65.2z M86,71c0.8,0,1.5-0.2,2.1-0.7v-0.5h-0.2c-0.5,0.5-1.1,0.7-1.8,0.7c-1.5,0-2.3-1-2.3-2.7c0-1.7,1-2.7,2.3-2.7
	c0.6,0,1.2,0.2,1.6,0.6H88v-0.5c-0.5-0.4-1.2-0.6-1.9-0.6c-1.6,0-2.9,1.3-2.9,2.9c0,0.1,0,0.2,0,0.3C83.2,69.7,84.3,71,86,71L86,71z
	 M91.7,71c1.7,0,2.9-1.2,2.9-3.2s-1.2-3.2-2.9-3.2s-2.9,1.2-2.9,3.2S90,71,91.7,71z M91.7,70.5c-1.4,0-2.3-1-2.3-2.7
	c0-1.7,0.9-2.7,2.3-2.7s2.3,1,2.3,2.7S93.1,70.5,91.7,70.5z M96.5,71v-7.8c0-0.5,0-0.6-0.4-0.6h-0.2v8.3L96.5,71z M98.8,71v-5.6
	c0-0.6,0-0.6-0.4-0.6h-0.2v6.2L98.8,71z M98.6,63.8c0.2,0,0.4-0.2,0.4-0.4c0-0.2-0.2-0.4-0.4-0.4c0,0,0,0,0,0
	c-0.2,0-0.4,0.2-0.4,0.4S98.3,63.8,98.6,63.8C98.6,63.8,98.6,63.8,98.6,63.8z M102.4,71h0.6l2.4-6v-0.2h-0.5l-2.1,5.4l0,0l-2.1-5.4
	h-0.5V65L102.4,71L102.4,71z M107.1,71v-5.6c0-0.6,0-0.6-0.4-0.6h-0.2v6.2L107.1,71z M106.8,63.8c0.2,0,0.4-0.2,0.4-0.4
	S107,63,106.8,63c-0.2,0-0.4,0.2-0.4,0.4l0,0C106.4,63.6,106.6,63.8,106.8,63.8z M109.5,65.4c0-0.5-0.1-0.6-0.3-0.6h-0.3V71h0.6
	v-4.8c0.7-0.6,1.6-1,2.5-1c0.7,0,1.2,0.2,1.2,1.2v4.6h0.6v-4.6c0.1-0.8-0.4-1.5-1.2-1.7c-0.1,0-0.3,0-0.4,0c-1,0-2,0.4-2.7,1.1V65.4
	L109.5,65.4z M120.3,64.7h-0.2c-0.3,0-0.4,0.3-0.4,0.7c-0.5-0.5-1.3-0.8-2-0.8c-1.3,0-2.7,0.8-2.7,3.2s1.2,3.1,2.4,3.1
	c0.9,0,1.7-0.4,2.3-1.1v1c0,1.2-1,1.6-2.1,1.6c-0.7,0-1.4-0.2-2.1-0.5h-0.2v0.5c0.7,0.4,1.5,0.6,2.3,0.6c1.4,0,2.6-0.7,2.6-2.1
	L120.3,64.7L120.3,64.7z M117.5,70.4c-1,0-1.9-0.6-1.9-2.6c0-2,1.1-2.7,2.2-2.7c0.7,0,1.4,0.3,1.9,0.9v3.2
	C119.2,69.9,118.4,70.4,117.5,70.4L117.5,70.4z"/>
<rect x="-6.4" y="-4" class="st2" width="214.6" height="87.5"/>
</svg>
