<svg id="Layer_1" data-name="Layer 1" xmlns="http://www.w3.org/2000/svg" viewBox="0 0 241 132"><defs><style>.cls-1{fill:#faab31;}.cls-1,.cls-2,.cls-3,.cls-4{fill-rule:evenodd;}.cls-2{fill:#fff;}.cls-3{fill:#0b0b0b;}.cls-4{fill:#231f20;}.cls-5{fill:none;}</style></defs><path class="cls-1" d="M176.92,34.32A44.65,44.65,0,0,0,154,58.78c-2.48,6.61-3.23,14.34.19,20.52a26.27,26.27,0,0,0,6,6.91c11.17,9.65,27.44,15.86,41.76,12.48a1.8,1.8,0,0,1-.37-.73,5.83,5.83,0,0,1-.6-2.36c.1-1.28-.49-2.46-.39-3.74a24.61,24.61,0,0,0,0-3.84c0-.49-.29-1-.29-1.37a9.36,9.36,0,0,1,0-1.68,4.05,4.05,0,0,1,.29-2.36,1.16,1.16,0,0,0-.1-.79c-.1-.2-.29-.49-.1-.79a2.11,2.11,0,0,0,.2-1.37c0-1.19,0-9.75.1-10.93a4.72,4.72,0,0,1,.39-2.85V63.12a.21.21,0,0,0-.19-.2c-.1.1-.2.1-.2.2C200,65,199,66.66,198.5,68.53a7.44,7.44,0,0,1-.59,1.38c-.29.89-.69,1.77-1.08,2.66l-1.57,2.66A15.29,15.29,0,0,0,194,77.88c-1.09,2.27-2.37,4.43-3.65,6.6a17.22,17.22,0,0,1-3.15,4.43,2.67,2.67,0,0,1-2.55.59c-.2,0-.3-.3-.5-.3-2-.09-2.65-1.37-3-3-.2-.49-.69-1-.1-1.57a10,10,0,0,1,.1-1.68c0-.39-.49-.69-.2-1.18a8.61,8.61,0,0,0,.2-1,21.7,21.7,0,0,1,.56-2.92,4.66,4.66,0,0,0-.46.85,23.27,23.27,0,0,1-3.94,3.74c-.49.2-.69.69-1.28.79-1.47,1.28-3.24,1.67-5,2.36a12.74,12.74,0,0,1-2.75.2,12.06,12.06,0,0,1-2.66-.3,6.69,6.69,0,0,1-3.25-1.87c-.2-.2-.29-.49-.59-.59-1.67-.79-2.07-2.56-2.85-3.94-.2-.39-.1-.88-.3-1.28a5.31,5.31,0,0,0-1.48-2.46,2.53,2.53,0,0,1-.39-.69.55.55,0,0,1,.39-.78h.59c.3,0,.69-.1.6-.5-.1-1.37.59-2.55.49-3.93,0-.3.19-.49.29-.79a9.2,9.2,0,0,0,.59-2c.1-.59.5-1.18.4-1.77V64.5c.78-1.09.78-2.46,1.67-3.55A17.74,17.74,0,0,0,163,58.59c-.1-1.38.89-2,1.77-2.56a9.48,9.48,0,0,1,2.95-1.57,2.46,2.46,0,0,1,1.87.19,3.64,3.64,0,0,0,1.09.5,1.41,1.41,0,0,1,.88,1.08c.1.69.5,1.18.4,1.87-.1.89.19,1.77-.2,2.66a2.08,2.08,0,0,0-.2,1.08c0,1-.59,1.87-.49,2.85-.59.79-.69,1.68-1.38,2.37-1,2.06-2.65,3.74-3.74,5.8-.39.5-.88.89-1.28,1.38s-.59.89-1.18,1.18c-.39.1-.59.59-.88.79a1.12,1.12,0,0,0-.4,1.18,5.28,5.28,0,0,0,1,2.86c.19.39.49.69.69,1.08A3.47,3.47,0,0,0,166,83.1a4.34,4.34,0,0,0,2.76,0c1.18-.39,2.46-.49,3.34-1.48a23.53,23.53,0,0,0,4.34-2.55,10.83,10.83,0,0,0,1-.79c.69-.49,1.28-1.08,2-1.58a4.45,4.45,0,0,0,1.47-1.57,5.19,5.19,0,0,1,1.87-2,11.73,11.73,0,0,0,1.2-1c.29-.67.42-1.4.68-2.09.49-1.09.88-2.07,1.37-3,.1-.3.1-.59.2-.89a3,3,0,0,1,1.28-2.26c.88-.5,1.57-1.28,2.56-1.77a11.63,11.63,0,0,1,3.15-1.58,3.27,3.27,0,0,1,2.36-.1c.79.4,1.58-.1,2.26.49,0,.1.3-.09.3-.19a3.94,3.94,0,0,0,.49-.89c.59-1.67,1.48-3.15,2-4.82s1.08-3.15,1.58-4.73a.52.52,0,0,0,.19-.39c-.19-1.67.59-3.25.4-5a5.63,5.63,0,0,1,.39-2.46c.3-.69-.1-1.68.39-2.46a1.7,1.7,0,0,0,.1-1,11.41,11.41,0,0,1,.59-4c-8.6-5-17.85-5.07-27.29-.72Zm28.77,23.29a8.54,8.54,0,0,1-.3,3.54c-.19.3-.09.79-.09,1.18,0,1.38-.1,2.76,0,4,.09,1.08-.5,2-.4,2.95.1,1.28,0,10,0,11.32,0,1.77.1,3.64,0,5.51-.1.79.49,1.48.4,2.27a14.16,14.16,0,0,0,0,2.06v1.28a11.29,11.29,0,0,0,.39,3.15,18,18,0,0,1,.1,2.37,1.64,1.64,0,0,1,0,.23,31.33,31.33,0,0,0,7.95-4.36c9-6.78,10.07-20.87,8.32-31.38a38.8,38.8,0,0,0-13.24-23.49l-.55-.44a1.45,1.45,0,0,1-.34,1c0,1.37-.69,2.65-.49,4,.1.69-.59,1.18-.49,2A15.72,15.72,0,0,1,207,47c-.69,1-.2,2.36-.69,3.44-.3.39-.1,1.08-.1,1.67s.1,1.38-.39,2.07c-.1.1,0,.4,0,.59-.2.49.39.79.1,1.38a6.54,6.54,0,0,0-.2,1.48Zm-14.57,8a9.94,9.94,0,0,0,2.17-2c.19-.29.39-.29.69-.1s.88.3,1,.69c.2.69.69.79,1.28.79.39,0,.49,0,.3.39a4,4,0,0,1-.4,1.18c-.69,1.68-1.48,3.35-2.26,4.93a44.67,44.67,0,0,1-2.27,4.92l-3.34,6.49a10.31,10.31,0,0,1-1.77,2.37c-.4.39-.69,1-1.19,1.47,0,.1-.19.2-.29.2a1.86,1.86,0,0,1-.39-.49c-.1-.1-.1-.4-.2-.59V84.18h.1V81.82c.59-.59.29-1.47.59-2.16a23.06,23.06,0,0,0,.59-2.66,14.54,14.54,0,0,1,.88-2.66c.4-.89,1-1.57.89-2.56,0-.29.29-.49.39-.79l.89-2.26a6.71,6.71,0,0,1,2.36-3.15ZM167,58.69c.09-.2.29-.3.39-.39a1.66,1.66,0,0,1,.29.49v.59h-.09c0,.49.19,1,0,1.28-.4.69-.3,1.48-.59,2.16l-1.19,3.35a4.06,4.06,0,0,1-.88,1.38c-.49.59-.79,1.28-1.28,2-.3.59-.89,1-1,.79-.19-.5,0-.79.2-1.28.49-1.38.89-2.86,1.38-4.24A48.11,48.11,0,0,1,167,58.69Z"/><path class="cls-2" d="M200.57,88a24.61,24.61,0,0,1,0,3.84c-.1,1.28.49,2.46.39,3.74a5.83,5.83,0,0,0,.6,2.36,1.8,1.8,0,0,0,.37.73,31.49,31.49,0,0,0,3.88-1.18,1.64,1.64,0,0,0,0-.23,18,18,0,0,0-.1-2.37,11.29,11.29,0,0,1-.39-3.15V90.48a14.16,14.16,0,0,1,0-2.06c.09-.79-.5-1.48-.4-2.27.1-1.87,0-3.74,0-5.51,0-1.28.1-10,0-11.32-.1-1,.49-1.87.4-2.95-.1-1.28,0-2.66,0-4,0-.39-.1-.88.09-1.18a8.54,8.54,0,0,0,.3-3.54,6.54,6.54,0,0,1,.2-1.48c.29-.59-.3-.89-.1-1.38,0-.19-.1-.49,0-.59.49-.69.29-1.38.39-2.07s-.2-1.28.1-1.67c.49-1.08,0-2.46.69-3.44a15.72,15.72,0,0,0,0-2.17c-.1-.79.59-1.28.49-2-.2-1.38.49-2.66.49-4a1.45,1.45,0,0,0,.34-1,35.31,35.31,0,0,0-4.08-2.8,11.41,11.41,0,0,0-.59,4,1.7,1.7,0,0,1-.1,1c-.49.78-.09,1.77-.39,2.46a5.63,5.63,0,0,0-.39,2.46c.19,1.77-.59,3.35-.4,5a.52.52,0,0,1-.19.39c-.5,1.58-1,3.15-1.58,4.73s-1.38,3.15-2,4.82a3.94,3.94,0,0,1-.49.89c0,.1-.3.29-.3.19-.68-.59-1.47-.09-2.26-.49a3.27,3.27,0,0,0-2.36.1A11.63,11.63,0,0,0,190,62.14c-1,.49-1.68,1.27-2.56,1.77a3,3,0,0,0-1.28,2.26c-.1.3-.1.59-.2.89-.49,1-.88,2-1.37,3-.26.69-.39,1.42-.68,2.09a11.73,11.73,0,0,1-1.2,1,5.19,5.19,0,0,0-1.87,2,4.45,4.45,0,0,1-1.47,1.57c-.69.5-1.28,1.09-2,1.58a10.83,10.83,0,0,1-1,.79,23.53,23.53,0,0,1-4.34,2.55c-.88,1-2.16,1.09-3.34,1.48a4.34,4.34,0,0,1-2.76,0,3.47,3.47,0,0,1-2.16-1.77c-.2-.39-.5-.69-.69-1.08a5.28,5.28,0,0,1-1-2.86,1.12,1.12,0,0,1,.4-1.18c.29-.2.49-.69.88-.79.59-.29.79-.78,1.18-1.18s.89-.88,1.28-1.38c1.09-2.06,2.76-3.74,3.74-5.8.69-.69.79-1.58,1.38-2.37-.1-1,.49-1.87.49-2.85a2.08,2.08,0,0,1,.2-1.08c.39-.89.1-1.77.2-2.66.1-.69-.3-1.18-.4-1.87a1.41,1.41,0,0,0-.88-1.08,3.64,3.64,0,0,1-1.09-.5,2.46,2.46,0,0,0-1.87-.19A9.48,9.48,0,0,0,164.74,56c-.88.59-1.87,1.18-1.77,2.56A17.74,17.74,0,0,1,161.69,61c-.89,1.09-.89,2.46-1.67,3.55V65c.1.59-.3,1.18-.4,1.77a9.2,9.2,0,0,1-.59,2c-.1.3-.29.49-.29.79.1,1.38-.59,2.56-.49,3.93.09.4-.3.5-.6.5h-.59a.55.55,0,0,0-.39.78,2.53,2.53,0,0,0,.39.69,5.31,5.31,0,0,1,1.48,2.46c.2.4.1.89.3,1.28.78,1.38,1.18,3.15,2.85,3.94.3.1.39.39.59.59a6.69,6.69,0,0,0,3.25,1.87,12.06,12.06,0,0,0,2.66.3,12.74,12.74,0,0,0,2.75-.2c1.78-.69,3.55-1.08,5-2.36.59-.1.79-.59,1.28-.79a23.27,23.27,0,0,0,3.94-3.74,4.66,4.66,0,0,1,.46-.85,21.7,21.7,0,0,0-.56,2.92,8.61,8.61,0,0,1-.2,1c-.29.49.2.79.2,1.18a10,10,0,0,0-.1,1.68c-.59.59-.1,1.08.1,1.57.4,1.58,1.08,2.86,3,3,.2,0,.3.3.5.3a2.67,2.67,0,0,0,2.55-.59,17.22,17.22,0,0,0,3.15-4.43c1.28-2.17,2.56-4.33,3.65-6.6a15.29,15.29,0,0,1,1.28-2.65l1.57-2.66c.39-.89.79-1.77,1.08-2.66a7.44,7.44,0,0,0,.59-1.38c.5-1.87,1.48-3.54,2.17-5.41,0-.1.1-.1.2-.2a.21.21,0,0,1,.19.2v2.76a4.72,4.72,0,0,0-.39,2.85c-.1,1.18-.1,9.74-.1,10.93a2.11,2.11,0,0,1-.2,1.37c-.19.3,0,.59.1.79a1.16,1.16,0,0,1,.1.79,4.05,4.05,0,0,0-.29,2.36,9.36,9.36,0,0,0,0,1.68c0,.39.29.88.29,1.37Zm-6.69-16.53a44.67,44.67,0,0,1-2.27,4.92l-3.34,6.49a10.31,10.31,0,0,1-1.77,2.37c-.4.39-.69,1-1.19,1.47,0,.1-.19.2-.29.2a1.86,1.86,0,0,1-.39-.49c-.1-.1-.1-.4-.2-.59V84.18h.1V81.82c.59-.59.29-1.47.59-2.16a23.06,23.06,0,0,0,.59-2.66,14.54,14.54,0,0,1,.88-2.66c.4-.89,1-1.57.89-2.56,0-.29.29-.49.39-.79l.89-2.26a6.71,6.71,0,0,1,2.36-3.15,9.94,9.94,0,0,0,2.17-2c.19-.29.39-.29.69-.1s.88.3,1,.69c.2.69.69.79,1.28.79.39,0,.49,0,.3.39a4,4,0,0,1-.4,1.18c-.69,1.68-1.48,3.35-2.26,4.93ZM167.6,60.66c-.4.69-.3,1.48-.59,2.16l-1.19,3.35a4.06,4.06,0,0,1-.88,1.38c-.49.59-.79,1.28-1.28,2-.3.59-.89,1-1,.79-.19-.5,0-.79.2-1.28.49-1.38.89-2.86,1.38-4.24a48.11,48.11,0,0,1,2.76-6.1c.09-.2.29-.3.39-.39a1.66,1.66,0,0,1,.29.49v.59h-.09C167.6,59.87,167.79,60.36,167.6,60.66Z"/><path class="cls-3" d="M128,79.48h13.72v1.87H128V79.48Zm0-28.61h13.28v1.87H128V50.87Zm-6,30.48h3.83V68.42h13.72V65H125.86V50.87H122V81.35Zm-10.63,0h3.84V50.87H111.4V81.35ZM96.69,76l10.4-25.17h-2.17L95.68,73.73l1,2.31Zm-3.14,6.18h.35l1.52-3.4L84.19,50.87h-4L93.55,82.22ZM64.64,82c-8.45,0-15.33-6.66-15.33-15.89a16.25,16.25,0,0,1,3.48-10.28l2.66,2.66a13.13,13.13,0,0,0-2.31,7.62c0,7.31,5.18,12.45,11.5,12.45a11,11,0,0,0,7.75-3.13L75,78a15.34,15.34,0,0,1-10.36,4Zm11.84-5.61a16.2,16.2,0,0,0,3.35-10.32c0-9.19-6.75-15.81-15.15-15.81A14.8,14.8,0,0,0,54.4,54.31l1.4,1.39a12.73,12.73,0,0,1,8.88-3.57c7.23,0,13.06,5.79,13.06,13.94A14.75,14.75,0,0,1,75,75l1.44,1.44ZM35.5,82a15.51,15.51,0,0,0,11.24-4.87l-1.92-2.88a13,13,0,0,1-9.36,4.31c-6.1,0-10.93-4.61-11.41-11.36H20.22c.48,8.66,7,14.8,15.28,14.8ZM20.22,65h2.13c.48-7.58,6.14-12.89,13-12.89a13.92,13.92,0,0,1,9.67,4l1-1.43a14.7,14.7,0,0,0-10.67-4.4C27.23,50.26,20.74,56.35,20.22,65Z"/><path class="cls-4" d="M62.6,98c1.61,0,2.34-.73,2.34-1.92s-.75-1.55-2.09-1.76-1.69-.49-1.69-1.24.55-1.17,1.6-1.17a2.33,2.33,0,0,1,1.61.5h.25v-.5a3.24,3.24,0,0,0-1.87-.49c-1.29,0-2.17.6-2.17,1.71s.78,1.52,2,1.72,1.73.52,1.73,1.28-.57,1.38-1.76,1.38a2.56,2.56,0,0,1-1.8-.63h-.25v.51A3.31,3.31,0,0,0,62.6,98Zm3-6h.86v4.58C66.5,97.56,67,98,68,98a5.42,5.42,0,0,0,1-.08v-.43h-.74c-.76,0-1.11-.24-1.11-1V92h1.72v-.47H67.12v-1.8H66.5v1.8h-.86V92Zm8.79,5.28c0,.61.06.7.33.7h.29V91.48h-.62v5a4.56,4.56,0,0,1-2.6,1c-.68,0-1.2-.24-1.2-1.23V91.48H70v4.84A1.52,1.52,0,0,0,71.74,98a4.64,4.64,0,0,0,2.69-1v.24Zm6.87,0c0,.59,0,.72.31.72h.32V89.86c0-.52-.06-.6-.42-.6H81.3v2.95a2.78,2.78,0,0,0-2.15-.81c-1.33,0-2.76.86-2.76,3.36S77.64,98,78.93,98a3,3,0,0,0,2.37-1.17v.4Zm-2.3.28c-1,0-2-.62-2-2.76s1.14-2.84,2.22-2.84a2.57,2.57,0,0,1,2.06.88v3.41A2.76,2.76,0,0,1,79,97.49Zm4.89-2.77h4.86s0-.17,0-.3c0-2.1-1.06-3-2.65-3s-2.86,1.29-2.86,3.32,1.08,3.26,3,3.26a3.59,3.59,0,0,0,2.34-.72V96.8h-.27a2.74,2.74,0,0,1-2,.67c-1.61,0-2.45-.94-2.45-2.75Zm2.22-2.85c1.2,0,2,.66,2,2.38H83.9c.15-1.58,1-2.38,2.21-2.38Zm4.55.25c0-.57-.07-.64-.34-.64H90v6.45h.62V93a4.56,4.56,0,0,1,2.59-1.09c.73,0,1.29.25,1.29,1.28v4.73h.62V93.12a1.5,1.5,0,0,0-1.67-1.72,4.53,4.53,0,0,0-2.83,1.11v-.39ZM96.14,92H97v4.58c0,1,.53,1.45,1.52,1.45a5.45,5.45,0,0,0,1-.08v-.43h-.75c-.75,0-1.11-.24-1.11-1V92h1.72v-.47H97.61v-1.8H97v1.8h-.85V92Zm9.94,6a3,3,0,0,0,2.16-.77v-.47H108a2.38,2.38,0,0,1-1.86.74c-1.51,0-2.41-1-2.41-2.8s1-2.78,2.41-2.78a2.25,2.25,0,0,1,1.71.62h.32V92a3,3,0,0,0-2-.62,3,3,0,0,0-3,3.28c0,2,1.12,3.3,3,3.3ZM112,98c1.81,0,3-1.24,3-3.28s-1.2-3.3-3-3.3-3,1.27-3,3.3S110.21,98,112,98Zm0-.49c-1.46,0-2.36-1-2.36-2.79s.9-2.81,2.36-2.81,2.38,1,2.38,2.81-.91,2.79-2.38,2.79Zm4.94.44V89.86c0-.52,0-.6-.4-.6h-.22v8.67Zm2.44,0V92.15c0-.6-.05-.67-.42-.67h-.2v6.45Zm-.3-7.44a.42.42,0,1,0,0-.84.42.42,0,1,0,0,.84Zm4,7.44h.58l2.46-6.23v-.22h-.51l-2.2,5.6h0l-2.22-5.6h-.55v.22l2.47,6.23Zm4.89,0V92.15c0-.6,0-.67-.42-.67h-.2v6.45Zm-.3-7.44a.42.42,0,1,0-.42-.42.42.42,0,0,0,.42.42Zm2.74,1.63c0-.57-.06-.64-.33-.64h-.29v6.45h.62V93a4.58,4.58,0,0,1,2.6-1.09c.73,0,1.29.25,1.29,1.28v4.73h.62V93.12a1.5,1.5,0,0,0-1.68-1.72,4.55,4.55,0,0,0-2.83,1.11v-.39Zm11.3-.64h-.2c-.33,0-.39.34-.43.73A2.85,2.85,0,0,0,139,91.4c-1.34,0-2.77.87-2.77,3.31s1.27,3.17,2.52,3.17a3.11,3.11,0,0,0,2.39-1.14v1.08c0,1.22-1,1.68-2.18,1.68a3.65,3.65,0,0,1-2.14-.57h-.25v.48A4.83,4.83,0,0,0,139,100c1.5,0,2.74-.7,2.74-2.13V91.48Zm-2.93,5.91c-1,0-2-.59-2-2.71s1.18-2.79,2.25-2.79a2.57,2.57,0,0,1,2,.89v3.31A2.82,2.82,0,0,1,138.79,97.39Z"/><rect class="cls-5" x="10.09" y="20.11" width="222.82" height="90.91"/></svg>