<svg id="Layer_1" data-name="Layer 1" xmlns="http://www.w3.org/2000/svg" viewBox="0 0 200 80"><defs><style>.cls-1{fill:#fff;fill-rule:evenodd;}</style></defs><path class="cls-1" d="M154.24655,9.683a42.994,42.994,0,0,0-22.06994,23.55283c-2.388,6.36485-3.1102,13.80815.183,19.759a25.29544,25.29544,0,0,0,5.77747,6.65373c10.75572,9.2921,26.42231,15.27179,40.2112,12.01714a1.73323,1.73323,0,0,1-.35627-.70293,5.61374,5.61374,0,0,1-.57776-2.27247c.0963-1.23253-.47183-2.36877-.37553-3.60129a23.696,23.696,0,0,0,0-3.69758c0-.47183-.27924-.96291-.27924-1.31919a9.013,9.013,0,0,1,0-1.6177,3.89978,3.89978,0,0,1,.27924-2.27247,1.117,1.117,0,0,0-.0963-.7607c-.0963-.19258-.27924-.47183-.0963-.7607a2.03169,2.03169,0,0,0,.19258-1.31919c0-1.14587,0-9.3884.0963-10.52463a4.54491,4.54491,0,0,1,.37554-2.7443V37.41484a.20223.20223,0,0,0-.183-.19258c-.0963.09629-.19258.09629-.19258.19258-.6644,1.81028-1.62731,3.40872-2.10876,5.20936a7.164,7.164,0,0,1-.56812,1.32881c-.27924.857-.66441,1.70436-1.04,2.56135l-1.51177,2.56135a14.723,14.723,0,0,0-1.21327,2.55171c-1.04957,2.18581-2.2821,4.2657-3.51462,6.35522a16.58125,16.58125,0,0,1-3.03317,4.2657,2.571,2.571,0,0,1-2.45543.56812c-.19258,0-.28887-.28888-.48145-.28888-1.92583-.08666-2.55171-1.31919-2.88874-2.88874-.19258-.47182-.66441-.96291-.0963-1.51177a9.62942,9.62942,0,0,1,.0963-1.61769c0-.37553-.47183-.66441-.19258-1.13624a8.29074,8.29074,0,0,0,.19258-.96291,20.89623,20.89623,0,0,1,.53923-2.8117,4.48749,4.48749,0,0,0-.44295.81847,22.40635,22.40635,0,0,1-3.79387,3.60129c-.47183.19258-.66441.66441-1.23253.7607-1.41548,1.23253-3.11984,1.60807-4.81456,2.27248a12.26784,12.26784,0,0,1-2.648.19258,11.61309,11.61309,0,0,1-2.56135-.28888,6.44187,6.44187,0,0,1-3.12946-1.80065c-.19258-.19258-.27924-.47182-.56811-.56811-1.60807-.7607-1.99324-2.465-2.74431-3.79388-.19258-.37553-.0963-.84736-.28888-1.23252a5.11307,5.11307,0,0,0-1.4251-2.36877,2.43634,2.43634,0,0,1-.37554-.66441.52959.52959,0,0,1,.37554-.75107h.56811c.28888,0,.66441-.09629.57776-.48145-.0963-1.3192.56811-2.45543.47183-3.78425,0-.28888.183-.47182.27924-.7607a8.85992,8.85992,0,0,0,.56811-1.92582c.0963-.56812.48146-1.13624.38516-1.70436v-.37552c.75107-1.04957.75107-2.36876,1.60806-3.41833a17.08126,17.08126,0,0,0,1.17477-2.27248c-.0963-1.32882.857-1.92582,1.70436-2.465a9.12842,9.12842,0,0,1,2.84058-1.51177,2.36873,2.36873,0,0,1,1.80065.183,3.50478,3.50478,0,0,0,1.04957.48145,1.35769,1.35769,0,0,1,.84736,1.04c.0963.66441.48146,1.13624.38516,1.80065a7.94947,7.94947,0,0,1-.19258,2.56134,2.00285,2.00285,0,0,0-.19258,1.03995c0,.96291-.56811,1.80064-.47183,2.7443-.56811.7607-.66441,1.61769-1.32882,2.2821-.96291,1.9836-2.55171,3.60129-3.6013,5.5849-.37553.48145-.84737.857-1.23252,1.32881s-.56812.857-1.13623,1.13624c-.37554.09629-.56812.56811-.84737.7607a1.07845,1.07845,0,0,0-.38516,1.13624,5.08425,5.08425,0,0,0,.96291,2.75393c.183.37553.47183.66441.66441,1.03994a3.3413,3.3413,0,0,0,2.02213,1.70435,4.17915,4.17915,0,0,0,2.65763,0c1.13623-.37554,2.36877-.47183,3.21612-1.42512a22.65686,22.65686,0,0,0,4.179-2.45543,10.42634,10.42634,0,0,0,.96292-.7607c.66441-.47182,1.23252-1.03994,1.92582-1.5214a4.2848,4.2848,0,0,0,1.41548-1.51177,4.99758,4.99758,0,0,1,1.80064-1.92583,11.29339,11.29339,0,0,0,1.15549-.96291c.27924-.64515.40443-1.34808.65478-2.01248.47183-1.04957.84736-1.99323,1.31918-2.88874.0963-.28887.0963-.56811.19258-.857a2.88873,2.88873,0,0,1,1.23253-2.17618c.84737-.48145,1.51178-1.23252,2.465-1.70435a11.19858,11.19858,0,0,1,3.03317-1.5214,3.14864,3.14864,0,0,1,2.27247-.09629c.76069.38516,1.5214-.09629,2.17618.47182,0,.09629.28887-.08666.28887-.183a3.793,3.793,0,0,0,.47183-.857c.56812-1.60806,1.42511-3.03317,1.92583-4.64123s1.04-3.03318,1.5214-4.55458a.50074.50074,0,0,0,.183-.37553c-.183-1.60806.56811-3.12947.38516-4.81456a5.42132,5.42132,0,0,1,.37553-2.36877c.28888-.6644-.0963-1.61769.37554-2.36876a1.637,1.637,0,0,0,.09629-.96291,10.9868,10.9868,0,0,1,.56812-3.85165c-8.281-4.81456-17.188-4.882-26.27788-.6933Zm27.703,22.42622a8.22355,8.22355,0,0,1-.28888,3.40871c-.183.28887-.08666.7607-.08666,1.13624,0,1.32882-.0963,2.65764,0,3.85164.08666,1.04-.48146,1.92583-.38516,2.84059.0963,1.23253,0,9.62912,0,10.90017,0,1.70435.0963,3.505,0,5.30564-.0963.7607.47183,1.42512.38516,2.18581a13.63472,13.63472,0,0,0,0,1.9836v1.23252a10.87114,10.87114,0,0,0,.37554,3.03318,17.33357,17.33357,0,0,1,.09629,2.2821,1.57706,1.57706,0,0,1,0,.22147,30.16775,30.16775,0,0,0,7.65515-4.19829c8.66621-6.52854,9.69652-20.096,8.01142-30.21618a37.36093,37.36093,0,0,0-12.749-22.6188l-.5296-.42368a1.39621,1.39621,0,0,1-.32739.96291c0,1.31919-.66441,2.55172-.47183,3.85165.09629.66441-.56812,1.13624-.47184,1.92582a15.13688,15.13688,0,0,1,.04817,2.1184c-.66441.96292-.19258,2.27248-.66441,3.31242-.28888.37553-.0963,1.03995-.0963,1.60806a3.14615,3.14615,0,0,1-.37554,1.99323c-.09629.09629,0,.38516,0,.56812-.19258.47183.37554.7607.0963,1.32882a6.29812,6.29812,0,0,0-.19258,1.42511ZM167.9199,39.8125a9.57126,9.57126,0,0,0,2.08952-1.92583c.183-.27924.37553-.27924.66441-.09629s.84737.28888.96291.66441c.19258.66442.66441.76071,1.23253.76071.37553,0,.47183,0,.28887.37553a3.85129,3.85129,0,0,1-.38515,1.13624c-.66442,1.61769-1.42511,3.22575-2.17618,4.74715A43.01233,43.01233,0,0,1,168.411,50.212l-3.21612,6.2493a9.92764,9.92764,0,0,1-1.70436,2.2821c-.38516.37554-.66441.96291-1.14586,1.41548,0,.09629-.183.19258-.27924.19258a1.79111,1.79111,0,0,1-.37554-.47182c-.09629-.09629-.09629-.38517-.19258-.56812v-1.6177h.0963V55.4213c.56812-.56811.27924-1.41548.56812-2.07989a22.20684,22.20684,0,0,0,.56811-2.56135,14.00014,14.00014,0,0,1,.84737-2.56135c.38516-.857.96291-1.51177.857-2.46506,0-.27924.27924-.47182.37553-.7607l.857-2.17618a6.46111,6.46111,0,0,1,2.27248-3.03317Zm-23.22543-6.66336c.08666-.19258.27924-.28887.37553-.37553a1.59835,1.59835,0,0,1,.27924.47183v.56812h-.08666c0,.47182.183.96291,0,1.23252-.38516.66441-.28887,1.42511-.56811,2.07989l-1.14587,3.22576a3.90952,3.90952,0,0,1-.84737,1.32881c-.47183.56812-.76069,1.23253-1.23252,1.92583-.28888.56811-.857.96291-.96292.7607-.18295-.48146,0-.7607.19258-1.23253.47184-1.32882.857-2.75393,1.32883-4.08274A46.32309,46.32309,0,0,1,144.69447,33.14914Z"/><path class="cls-1" d="M107.1409,53.16809h13.21115v1.80065H107.1409Zm0-27.54891h12.78747v1.80064H107.1409Zm-5.77747,29.34956h3.688V42.51828h13.21116V39.22512H105.08027V25.61917h-3.71684Zm-10.23576,0h3.69758V25.61917H91.15656V54.96873ZM76.99213,49.81715,87.00641,25.58066H84.91689L76.01958,47.63135l.96291,2.22432ZM73.96858,55.768h.337l1.46362-3.2739L64.95573,25.61917H61.10408l12.8645,30.1873Zm-27.83779-.17333c-8.13661,0-14.76144-6.413-14.76144-15.30067a15.64732,15.64732,0,0,1,3.35093-9.89873l2.56135,2.56134A12.64309,12.64309,0,0,0,35.0573,40.294c0,7.03889,4.98788,11.98825,11.07349,11.98825a10.592,10.592,0,0,0,7.46257-3.01391l2.5132,2.47469A14.771,14.771,0,0,1,46.13079,55.59462Zm11.40088-5.40193a15.5992,15.5992,0,0,0,3.22575-9.93725c0-8.84916-6.49966-15.22364-14.58812-15.22364a14.25106,14.25106,0,0,0-9.89872,3.89979L37.61865,30.27a12.25786,12.25786,0,0,1,8.55066-3.4376c6.96186,0,12.57563,5.57526,12.57563,13.423a14.20293,14.20293,0,0,1-2.63838,8.5988l1.3866,1.3866ZM18.07154,55.59462a14.93479,14.93479,0,0,0,10.82313-4.68938l-1.84879-2.77318A12.51783,12.51783,0,0,1,18.033,52.2822c-5.87376,0-10.52463-4.439-10.98683-10.93868H3.35824C3.82044,49.68235,10.09862,55.59462,18.07154,55.59462ZM3.35824,39.22512h2.051c.4622-7.29887,5.91228-12.41194,12.51786-12.41194a13.40383,13.40383,0,0,1,9.31136,3.85165l.96291-1.377A14.15483,14.15483,0,0,0,17.9271,25.05105C10.10825,25.0318,3.859,30.89593,3.35824,39.22512Z"/><path class="cls-1" d="M44.16645,71.00122c1.55029,0,2.25321-.70293,2.25321-1.84879s-.72218-1.49252-2.01248-1.69473-1.62732-.47182-1.62732-1.194.5296-1.1266,1.54065-1.1266a2.24355,2.24355,0,0,1,1.55029.48145h.24073v-.48145a3.11975,3.11975,0,0,0-1.80064-.47183c-1.24216,0-2.08953.57775-2.08953,1.64658s.75107,1.46362,1.92583,1.65621,1.66584.50071,1.66584,1.23253-.54886,1.32881-1.69472,1.32881a2.465,2.465,0,0,1-1.73324-.60663h-.24073v.49109A3.18725,3.18725,0,0,0,44.16645,71.00122Zm2.88874-5.77748h.8281v4.41014c.03852.94365.52,1.36734,1.48289,1.36734a5.21956,5.21956,0,0,0,.96291-.077v-.41405h-.71255c-.73182,0-1.06884-.2311-1.06884-.96291V65.22374h1.65621v-.45257H48.51882V63.03793h-.597v1.73324H47.0937v.45257Zm8.464,5.08418c0,.58738.05778.674.31777.674h.27924V64.723h-.597v4.81456a4.39083,4.39083,0,0,1-2.50357.96292c-.65478,0-1.15549-.2311-1.15549-1.18439V64.723H51.292v4.6605a1.46364,1.46364,0,0,0,1.67547,1.61769,4.46792,4.46792,0,0,0,2.59023-.96292v.2311Zm6.61521,0c0,.56811,0,.6933.2985.6933H62.741V63.16311c0-.50071-.05777-.57774-.40442-.57774h-.16369V65.426a2.67685,2.67685,0,0,0-2.07026-.78c-1.28068,0-2.65764.8281-2.65764,3.23538s1.20364,3.11984,2.4458,3.11984a2.88875,2.88875,0,0,0,2.2821-1.12661v.38517Zm-2.2147.26961c-.96291,0-1.92582-.597-1.92582-2.65764s1.09772-2.73466,2.13766-2.73466a2.47466,2.47466,0,0,1,1.9836.84736v3.28353a2.65761,2.65761,0,0,1-2.15692,1.194Zm4.70864-2.66726h4.67975v-.28888c0-2.02211-1.02068-2.88873-2.55171-2.88873s-2.75393,1.24215-2.75393,3.19686,1.03994,3.1391,2.88873,3.1391a3.45688,3.45688,0,0,0,2.25321-.6933v-.52959h-.26a2.63837,2.63837,0,0,1-1.92582.64514c-1.55029,0-2.35913-.90514-2.35913-2.648ZM66.766,65.166c1.15549,0,1.92582.63553,1.92582,2.29173H64.67648c.14444-1.5214.96291-2.29173,2.128-2.29173Zm4.38125.24073c0-.54886-.0674-.61626-.32739-.61626h-.26962v6.21078h.597V66.18666a4.39073,4.39073,0,0,1,2.49394-1.04957c.70293,0,1.24216.24072,1.24216,1.23252v4.55458h.597v-4.622A1.44436,1.44436,0,0,0,73.87229,64.646a4.36193,4.36193,0,0,0-2.725,1.06883V65.4067Zm5.31527-.183h.82811v4.41014c0,.96292.51034,1.39622,1.46362,1.39622a5.24767,5.24767,0,0,0,.96291-.077V70.539H78.995c-.72219,0-1.06884-.2311-1.06884-.96292V65.22374h1.65621v-.45257H77.878V63.03793h-.58737v1.73324h-.81848v.45257Zm9.57135,5.77748a2.88876,2.88876,0,0,0,2.07989-.74144v-.45257h-.2311a2.29174,2.29174,0,0,1-1.791.71255c-1.454,0-2.32062-.96291-2.32062-2.69616s.96291-2.67689,2.32062-2.67689a2.16655,2.16655,0,0,1,1.64658.597h.30813v-.52a3.02365,3.02365,0,0,0-4.82714,2.27909q-.00062.14136.01258.28226c0,1.92582,1.07847,3.17761,2.88874,3.17761Zm5.70044,0c1.74286,0,2.88873-1.194,2.88873-3.15835s-1.15549-3.17762-2.88873-3.17762a3.18148,3.18148,0,0,0,0,6.336Zm0-.47183c-1.40585,0-2.27248-.96291-2.27248-2.68652s.86663-2.70578,2.27248-2.70578S94.026,66.1,94.026,67.84287,93.14978,70.52939,91.73431,70.52939Zm4.75678.42369v-7.79c0-.50071,0-.57774-.38516-.57774h-.21184v8.34844Zm2.34951,0v-5.5849c0-.57774-.04815-.64515-.40442-.64515H98.2436v6.21078ZM98.55172,63.789a.40442.40442,0,1,0,.00239-.80884h-.00239a.40442.40442,0,1,0-.00238.80884Zm3.85165,7.16407h.55849l2.36877-5.99895v-.21184h-.49109l-2.1184,5.3923h0l-2.13767-5.3923h-.5296v.21184l2.37839,5.99895Zm4.70864,0v-5.5849c0-.57774,0-.64515-.40442-.64515H106.515v6.21078Zm-.28887-7.16407a.40442.40442,0,1,0-.40443-.40442h0A.40443.40443,0,0,0,106.82314,63.789Zm2.63838,1.56954c0-.54886-.05777-.61626-.31776-.61626h-.27924v6.21078h.597V66.18666a4.41009,4.41009,0,0,1,2.50358-1.04957c.70292,0,1.24215.24072,1.24215,1.23252v4.55458h.597v-4.622a1.44435,1.44435,0,0,0-1.61769-1.65621,4.38126,4.38126,0,0,0-2.725,1.06883v-.35628Zm10.88091-.61626h-.19258c-.31776,0-.37554.32739-.41405.70293a2.74429,2.74429,0,0,0-2.00287-.79922c-1.2903,0-2.66727.83773-2.66727,3.18724s1.2229,3.05242,2.42654,3.05242a2.99463,2.99463,0,0,0,2.30136-1.09771v1.03994c0,1.17476-.96291,1.61769-2.09914,1.61769a3.51464,3.51464,0,0,1-2.06063-.54885h-.24073v.4622a4.65085,4.65085,0,0,0,2.33987.56811c1.44437,0,2.63838-.674,2.63838-2.051V64.723ZM117.5211,70.4331c-.96291,0-1.92582-.56811-1.92582-2.60949s1.13623-2.68652,2.16655-2.68652a2.47467,2.47467,0,0,1,1.92583.857v3.18723a2.71543,2.71543,0,0,1-2.15695,1.23253Z"/></svg>